<svg width="16" height="10" viewBox="0 0 16 10" fill="none" xmlns="http://www.w3.org/2000/svg">
<path d="M8.00001 7.42003C6.66348 7.42003 5.58001 6.33656 5.58001 5.00003C5.58001 3.66351 6.66348 2.58003 8.00001 2.58003C9.33654 2.58003 10.42 3.66351 10.42 5.00003C10.42 6.33656 9.33654 7.42003 8.00001 7.42003Z" fill="#9E9E9E"/>
<path fill-rule="evenodd" clip-rule="evenodd" d="M15.865 5.00003C14.655 7.42003 11.63 9.84003 8.00001 9.84003C4.37001 9.84003 1.34501 7.42003 0.13501 5.00003C1.34501 2.58003 4.37001 0.160034 8.00001 0.160034C11.63 0.160034 14.655 2.58003 15.865 5.00003ZM8.00001 7.42003C10.0394 7.42003 11.8722 6.31203 12.9778 5.00004C11.8722 3.68805 10.0394 2.58003 8.00001 2.58003C5.96057 2.58003 4.12786 3.68805 3.02221 5.00004C4.12786 6.31203 5.96057 7.42003 8.00001 7.42003Z" fill="#9E9E9E"/>
</svg>
